PathFileType	4	(X/Y/Z)
DataRate	CameraRate	NumFrames	NumMarkers	Units	OrigDataRate	OrigDataStartFrame	OrigNumFrames	
  100.0	  100.0	    4	     56	     mm	  100.0	      1	    855
Frame#	Time	LASI			RASI			LPSI			RPSI			RTH1			RTH2			RTH3			RLFC			RMFC			LTH1			LTH2			LTH3			LLFC			LMFC			RTB1			RTB2			RTB3			RLMAL			RMMAL			LTB1			LTB2			LTB3			LMMAL			LLMAL			RCAL			RTOE			RMT5			LCAL			LTOE			LMT5			LACR			RACR			CLAV			C7			LASH			LPSH			RASH			RPSH			RUA1			RUA2			RUA3			RLEL			RMEL			LUA1			LUA2			LUA3			LLEL			LMEL			RFAsuperior			RFAradius			RFAulna			LFAsuperior			LFAradius			LFAulna			RHJC			LHJC			
		X1	Y1	Z1	X2	Y2	Z2	X3	Y3	Z3	X4	Y4	Z4	X5	Y5	Z5	X6	Y6	Z6	X7	Y7	Z7	X8	Y8	Z8	X9	Y9	Z9	X10	Y10	Z10	X11	Y11	Z11	X12	Y12	Z12	X13	Y13	Z13	X14	Y14	Z14	X15	Y15	Z15	X16	Y16	Z16	X17	Y17	Z17	X18	Y18	Z18	X19	Y19	Z19	X20	Y20	Z20	X21	Y21	Z21	X22	Y22	Z22	X23	Y23	Z23	X24	Y24	Z24	X25	Y25	Z25	X26	Y26	Z26	X27	Y27	Z27	X28	Y28	Z28	X29	Y29	Z29	X30	Y30	Z30	X31	Y31	Z31	X32	Y32	Z32	X33	Y33	Z33	X34	Y34	Z34	X35	Y35	Z35	X36	Y36	Z36	X37	Y37	Z37	X38	Y38	Z38	X39	Y39	Z39	X40	Y40	Z40	X41	Y41	Z41	X42	Y42	Z42	X43	Y43	Z43	X44	Y44	Z44	X45	Y45	Z45	X46	Y46	Z46	X47	Y47	Z47	X48	Y48	Z48	X49	Y49	Z49	X50	Y50	Z50	X51	Y51	Z51	X52	Y52	Z52	X53	Y53	Z53	X54	Y54	Z54	X55	Y55	Z55	X56	Y56	Z56	

32	0.32000	894.48749	1085.28161	-495.44741	654.38684	1090.27741	-485.86789	815.48261	1111.07690	-660.58990	730.64694	1109.26462	-657.22506	595.03488	832.87978	-579.56000	616.81862	758.68372	-513.11054	612.38425	661.48019	-588.54663	612.09189	542.29417	-575.14176	724.45185	525.37555	-590.75114	942.48411	866.19259	-603.57663	949.89706	755.28854	-536.56694	939.09384	657.15542	-595.42856	938.13008	536.81564	-573.21910	829.10942	522.61927	-589.57352	649.42250	408.99655	-557.17230	609.50464	355.79935	-605.10027	660.06941	228.27995	-585.55010	651.49515	118.04385	-632.94873	728.13481	139.77891	-602.94353	913.32456	419.29270	-559.94568	926.08001	321.09121	-646.85791	885.98068	230.15626	-580.54677	808.79457	126.57754	-595.91610	889.47920	110.76301	-622.05670	720.33557	97.35318	-684.19978	675.52663	74.60603	-462.25906	609.67307	55.35651	-539.87042	830.40095	87.15267	-680.57375	853.11626	76.57252	-454.60076	919.58787	56.34877	-515.56220	928.25165	1577.70879	-597.38037	616.57424	1553.53149	-584.41663	750.53555	1513.26081	-509.18542	769.27044	1594.88783	-631.08732	918.76284	1520.27831	-536.16875	946.71038	1523.64664	-662.24482	621.02028	1501.77332	-530.00557	594.69338	1519.36933	-640.37564	537.34418	1387.32714	-549.39851	538.89319	1305.94926	-587.41409	514.19668	1258.78357	-537.01660	502.91121	1196.06410	-500.78741	573.80997	1180.98839	-549.90379	1005.68320	1422.95880	-600.84760	997.14350	1319.71196	-606.43199	1034.67053	1288.42485	-546.26869	1047.59021	1211.73592	-513.53571	977.41651	1195.12276	-560.32981	500.54821	1118.15678	-482.28937	573.71509	956.96123	-378.20465	514.82877	943.65976	-409.66449	1049.54022	1114.70942	-498.12682	988.09360	988.43802	-383.65601	1044.34659	968.43546	-420.20472	669.92918	986.78237	-566.87958	876.31916	980.01520	-568.70587	
33	0.33000	894.54580	1085.32705	-495.90904	654.38428	1090.35582	-486.24033	815.35862	1111.04736	-661.12368	730.54234	1109.23454	-657.68422	595.42180	832.83142	-580.06750	616.82387	758.73729	-513.26343	612.32011	661.48599	-588.77874	612.08650	542.33137	-575.22223	724.45335	525.40609	-590.95619	942.37580	866.21064	-604.02385	950.07029	755.30108	-536.97823	939.04129	657.17378	-595.80512	938.12245	536.85184	-573.50451	829.06198	522.74853	-589.86868	649.43134	409.00723	-557.27718	609.52189	355.80107	-605.09711	660.08835	228.32193	-585.54738	651.52616	118.04933	-632.96503	728.14971	139.76733	-602.94681	913.35899	419.38912	-560.05647	926.07551	321.10001	-647.10878	886.01593	230.20945	-580.62414	808.78673	126.60165	-595.89314	889.46870	110.76155	-622.05488	720.35525	97.36155	-684.20057	675.50848	74.56804	-462.20425	609.67867	55.30500	-539.87218	830.42200	87.18779	-680.60887	853.12722	76.56983	-454.60120	919.60475	56.36018	-515.45667	928.15500	1578.06806	-597.86490	616.65250	1553.52039	-584.63087	750.57313	1513.19542	-509.78972	769.21237	1594.85067	-631.68705	918.48729	1520.91725	-536.52585	946.84513	1523.77600	-662.51319	621.40461	1501.94496	-530.27654	594.56216	1519.34743	-640.48478	537.07501	1388.28465	-547.34312	538.39625	1306.30463	-583.89120	513.47363	1260.14465	-532.61292	502.08526	1198.14540	-495.04672	572.73205	1182.17830	-544.79959	1005.94189	1423.64030	-599.20773	998.02964	1320.13594	-602.62249	1035.59732	1290.27657	-541.67857	1048.64737	1214.33015	-507.25324	979.04177	1196.38369	-554.31954	499.60349	1120.86451	-475.21907	572.52702	961.07899	-368.68991	513.09409	947.56370	-399.23925	1051.23135	1117.73027	-490.44644	990.18232	992.74328	-374.24741	1046.58862	972.98682	-410.61438	669.88644	986.80484	-567.17020	876.27731	980.02728	-569.16732	
34	0.34000	894.60519	1085.35943	-496.43998	654.36239	1090.41704	-486.73679	815.21784	1111.02088	-661.64844	730.43053	1109.21262	-658.14409	595.59071	832.79437	-580.49657	616.81551	758.78821	-513.45417	612.28331	661.48986	-588.99830	612.08757	542.34474	-575.29561	724.44913	525.43803	-591.15135	942.25563	866.22812	-604.49037	950.16731	755.33584	-537.40209	938.98595	657.19134	-596.19553	938.11736	536.87765	-573.82681	829.03243	522.80188	-590.08382	649.46297	408.99424	-557.44078	609.52769	355.81740	-605.07452	660.09666	228.33164	-585.58737	651.52890	118.04802	-632.95756	728.15846	139.76072	-602.94977	913.38695	419.46170	-560.22724	926.06585	321.09700	-647.33948	886.03608	230.21693	-580.70008	808.78637	126.61940	-595.87534	889.46214	110.77398	-622.06510	720.36772	97.36650	-684.19817	675.50212	74.54236	-462.17331	609.68334	55.27844	-539.87325	830.43264	87.20970	-680.62774	853.13607	76.56578	-454.60627	919.62059	56.36552	-515.39600	928.05818	1578.41794	-598.40223	616.74330	1553.55638	-584.89280	750.65015	1513.13188	-510.42631	769.17131	1594.84722	-632.27684	918.14793	1521.59666	-536.89078	946.98266	1523.89499	-662.77293	621.79285	1502.24891	-530.52593	594.40264	1519.36388	-640.60654	536.84489	1389.37402	-545.29754	537.77067	1306.76440	-580.21996	512.75557	1261.64633	-528.04431	501.26571	1200.40047	-489.23675	571.46249	1183.27770	-539.57277	1006.15224	1424.36150	-597.51708	998.95602	1320.65028	-598.70305	1036.49641	1292.26761	-536.93492	1049.68287	1217.10847	-500.80184	980.65471	1197.78917	-548.11465	498.67604	1123.63447	-468.03884	571.37103	965.46788	-358.88659	511.54151	951.67274	-388.68831	1052.94174	1120.92173	-482.33183	992.17444	997.31081	-364.54980	1048.84476	977.56613	-400.11835	669.83750	986.81782	-567.54388	876.23077	980.03924	-569.71656	
35	0.35000	894.67147	1085.36212	-497.04149	654.33079	1090.46337	-487.29585	815.05790	1111.00277	-662.16148	730.30856	1109.20134	-658.60577	595.46452	832.79180	-580.79297	616.78392	758.83592	-513.71628	612.27440	661.48865	-589.20172	612.08894	542.34398	-575.36592	724.44051	525.46520	-591.32720	942.13089	866.25082	-605.00377	950.17617	755.39403	-537.85422	938.92604	657.21106	-596.60410	938.11028	536.89217	-574.19810	829.02013	522.77451	-590.25984	649.50851	408.96745	-557.64482	609.51713	355.83352	-605.06333	660.09277	228.31768	-585.66571	651.51351	118.04310	-632.93924	728.15441	139.76002	-602.94653	913.41189	419.51597	-560.48571	926.04606	321.07862	-647.54135	886.03025	230.18634	-580.76440	808.79295	126.62930	-595.86344	889.45932	110.78670	-622.07584	720.36768	97.36808	-684.18909	675.50782	74.53141	-462.16836	609.68305	55.28509	-539.86752	830.42746	87.21604	-680.62177	853.14285	76.55995	-454.60426	919.62926	56.35604	-515.40911	927.95761	1578.75978	-598.99545	616.84836	1553.66675	-585.21575	750.77562	1513.08241	-511.09811	769.14528	1594.87264	-632.87181	917.72420	1522.32635	-537.27161	947.12531	1523.99774	-663.02726	622.18956	1502.73850	-530.73463	594.20133	1519.44413	-640.76071	536.65955	1390.63527	-543.24523	536.99929	1307.38450	-576.37365	512.06157	1263.36940	-523.25646	500.45574	1202.92861	-483.28044	569.98744	1184.35565	-534.00910	1006.31421	1425.13851	-595.75510	999.94120	1321.30528	-594.60543	1037.36111	1294.47613	-531.96217	1050.68962	1220.17785	-494.08886	982.26192	1199.42252	-541.59802	497.75445	1126.57655	-460.62498	570.25344	970.29854	-348.65034	510.17129	956.14449	-377.86206	1054.66534	1124.41798	-473.68849	994.05185	1002.30806	-354.41492	1051.15430	982.24791	-388.26183	669.77428	986.83012	-567.97682	876.16943	980.03839	-570.34552	
